<svg xmlns="http://www.w3.org/2000/svg" viewBox="0 0.0000119209 1930 135">
  <path d="M 0 42.1438 V 140.144 L 1930 139 V 43 C 1901 25 1896 30 1873 55 C 1888 40 1860.4 72.3438 1832 71.1438 C 1796.5 69.6438 1780 58.1438 1746.5 36.1438 C 1713 14.1438 1695 25.1438 1667.5 33.1438 C 1640 41.1438 1637 44.6438 1596 31.6438 C 1555 18.6438 1524 40.6438 1497 61.1438 C 1470 81.6438 1426 103.644 1376.5 74.1438 C 1327 44.6438 1288.5 33.6438 1261 51.6438 C 1239 66.0438 1223.5 55.9771 1218.5 49.1438 C 1212.17 39.4771 1192.7 18.1438 1165.5 10.1438 C 1131.5 0.1438 1105 7.6438 1040 48.1438 C 988 80.5438 942 60.6438 925.5 46.6438 C 909.667 33.4771 870.2 6.3438 839 3.1438 C 800 -0.8562 779 38.6438 751 52.1438 C 723 65.6438 692.5 66.1438 660 52.1438 C 627.5 38.1438 597 59.6438 561 87.1438 C 532.2 109.144 494 79.6438 478.5 62.1438 C 376 -42.3562 248.5 19.6438 235.5 22.6438 C 222.5 25.6438 211.5 25.6438 198.5 25.1438 C 185.5 24.6438 163.5 17.1438 149 5.6438 C 134.5 -5.8562 117.5 -0.8562 81 30.6438 C 51.8 55.8438 14.8333 48.8105 0 42.1438 Z" fill="#fff"/>
</svg>